# File created by Blade
# Date/Time:  Tue Apr 07 20:22:14 2015
# Frame Rate: 120.000 fps
#------------------------------------------------------
:FULLY-SPECIFIED
:DEGREES
621
root 5.567126 34.224502 -9.659901 32.113445 -38.224910 -44.687260
Spine 1.302373 25.345934 25.075410
Head 0.910346 4.805440 4.620749
LeftShoulder -24.453172 43.189971 13.944465
LeftArm 55.335881 -50.755577 -78.024324
LeftForeArm -0.535267 -0.000000 7.997881
LeftHand 11.584879 -0.000000 7.523780
LeftHandThumb1 -26.253704 0.000000 33.147579
RightShoulder 7.854529 9.507518 -16.113488
RightArm 25.290180 3.401103 72.830423
RightForeArm 6.304054 -0.000000 2.293442
RightHand 2.191321 -0.000000 7.167914
RightHandThumb1 -24.326973 -0.000000 -32.862282
LeftUpLeg -7.273175 12.163004 27.082478
LeftLeg 16.008753 -0.000000 -0.000000
LeftFoot -15.518958 18.445282 -22.026349
LeftToeBase -5.688220 -0.000000 0.000000
RightUpLeg -76.963745 -44.929656 -4.142844
RightLeg 136.568562 -0.000000 -0.000000
RightFoot 47.888303 6.684966 7.034020
RightToeBase 35.641166 -0.000000 -0.000000
622
root 5.559034 34.241410 -9.677749 31.974247 -38.086127 -44.631660
Spine 1.326535 25.332165 24.920444
Head 0.780401 4.582002 4.920839
LeftShoulder -24.297122 43.106692 14.106301
LeftArm 55.345179 -50.665856 -77.688103
LeftForeArm -0.591844 -0.000000 8.071638
LeftHand 11.635659 -0.000000 7.443451
LeftHandThumb1 -26.253704 0.000000 33.147579
RightShoulder 7.773852 9.371419 -16.101288
RightArm 25.201281 3.446189 72.681440
RightForeArm 6.399149 -0.000000 2.369436
RightHand 2.239694 -0.000000 7.069804
RightHandThumb1 -24.326973 -0.000000 -32.862282
LeftUpLeg -7.294804 11.991799 27.232424
LeftLeg 16.146613 -0.000000 -0.000000
LeftFoot -15.327149 18.088166 -22.138802
LeftToeBase -5.729588 -0.000000 0.000000
RightUpLeg -76.932569 -44.999726 -4.205901
RightLeg 136.483266 -0.000000 -0.000000
RightFoot 47.876491 6.278703 7.187833
RightToeBase 35.566056 -0.000000 -0.000000
623
root 5.549096 34.256891 -9.694421 31.821990 -37.944292 -44.586548
Spine 1.354031 25.282071 24.776203
Head 0.693476 4.405873 5.231868
LeftShoulder -24.224725 43.082662 14.213556
LeftArm 55.519431 -50.569611 -77.490488
LeftForeArm -0.610736 -0.000000 8.095435
LeftHand 11.617796 -0.000000 7.462673
LeftHandThumb1 -26.253704 0.000000 33.147579
RightShoulder 7.715262 9.229113 -16.088869
RightArm 25.165674 3.502729 72.529802
RightForeArm 6.450013 0.000000 2.375768
RightHand 2.197746 -0.000000 6.936774
RightHandThumb1 -24.326973 -0.000000 -32.862282
LeftUpLeg -7.231360 11.892581 27.387772
LeftLeg 16.158428 -0.000000 -0.000000
LeftFoot -15.143451 17.684391 -22.246316
LeftToeBase -5.955402 -0.000000 0.000000
RightUpLeg -76.920274 -45.092800 -4.262453
RightLeg 136.385337 -0.000000 -0.000000
RightFoot 47.752988 6.033694 7.088209
RightToeBase 35.456249 -0.000000 -0.000000
624
root 5.538105 34.271528 -9.710474 31.728319 -37.799243 -44.582126
Spine 1.320221 25.277085 24.650950
Head 0.684854 4.237803 5.530950
LeftShoulder -24.114173 43.035048 14.338234
LeftArm 55.618312 -50.455312 -77.181603
LeftForeArm -0.676211 -0.000000 8.068941
LeftHand 11.697505 -0.000000 7.384135
LeftHandThumb1 -26.253704 0.000000 33.147579
RightShoulder 7.650235 9.139063 -16.075624
RightArm 25.061952 3.489515 72.354446
RightForeArm 6.567491 -0.000000 2.334877
RightHand 2.393567 0.000000 6.838233
RightHandThumb1 -24.326973 -0.000000 -32.862282
LeftUpLeg -7.150162 11.856089 27.556018
LeftLeg 16.072801 -0.000000 -0.000000
LeftFoot -15.012652 17.223572 -22.434054
LeftToeBase -5.765739 -0.000000 0.000000
RightUpLeg -76.985272 -45.180490 -4.263055
RightLeg 136.252929 -0.000000 -0.000000
RightFoot 47.551266 5.801595 6.834908
RightToeBase 35.588916 -0.000000 -0.000000
625
root 5.526198 34.283903 -9.727308 31.682603 -37.654083 -44.582350
Spine 1.204924 25.301043 24.488071
Head 0.730351 4.064403 5.886132
LeftShoulder -24.004813 42.988282 14.492148
LeftArm 55.658998 -50.295342 -76.804992
LeftForeArm -0.802717 -0.000000 8.049505
LeftHand 11.669652 -0.000000 7.276546
LeftHandThumb1 -26.253704 0.000000 33.147579
RightShoulder 7.566441 9.028162 -16.051883
RightArm 24.992228 3.520586 72.197748
RightForeArm 6.686361 -0.000000 2.280612
RightHand 2.406926 0.000000 6.624407
RightHandThumb1 -24.326973 -0.000000 -32.862282
LeftUpLeg -7.108077 11.803070 27.713831
LeftLeg 16.011210 -0.000000 -0.000000
LeftFoot -14.971866 16.781822 -22.687511
LeftToeBase -5.619783 -0.000000 0.000000
RightUpLeg -77.155391 -45.294851 -4.245589
RightLeg 136.069203 -0.000000 -0.000000
RightFoot 47.395678 5.120583 6.841920
RightToeBase 35.850334 -0.000000 -0.000000
626
root 5.516358 34.293794 -9.746913 31.677108 -37.497976 -44.592098
Spine 1.044561 25.323873 24.331490
Head 0.825395 3.897779 6.215545
LeftShoulder -23.898869 42.887603 14.632117
LeftArm 55.690751 -50.148726 -76.397089
LeftForeArm -0.882111 0.000000 7.975725
LeftHand 11.656594 -0.000000 7.189891
LeftHandThumb1 -26.253704 0.000000 33.147579
RightShoulder 7.502283 8.990199 -16.049477
RightArm 24.831225 3.615673 72.087702
RightForeArm 6.674881 0.000000 2.244755
RightHand 2.431446 0.000000 6.686542
RightHandThumb1 -24.326973 -0.000000 -32.862282
LeftUpLeg -7.095999 11.665620 27.881724
LeftLeg 15.936627 -0.000000 -0.000000
LeftFoot -14.994331 16.306937 -23.082183
LeftToeBase -5.600786 -0.000000 0.000000
RightUpLeg -77.460574 -45.414977 -4.143248
RightLeg 135.846043 -0.000000 -0.000000
RightFoot 47.076554 4.515545 6.419261
RightToeBase 35.919165 -0.000000 -0.000000
627
root 5.506501 34.301716 -9.768743 31.707989 -37.332721 -44.622500
Spine 0.844288 25.333258 24.181367
Head 0.962403 3.767665 6.533731
LeftShoulder -23.799682 42.740669 14.770979
LeftArm 55.704396 -50.036884 -75.984306
LeftForeArm -0.865745 -0.000000 7.849354
LeftHand 11.727600 -0.000000 7.001797
LeftHandThumb1 -26.253704 0.000000 33.147579
RightShoulder 7.453055 8.966877 -16.035336
RightArm 24.704345 3.655881 71.946531
RightForeArm 6.718947 -0.000000 2.143508
RightHand 2.437170 -0.000000 6.756547
RightHandThumb1 -24.326973 -0.000000 -32.862282
LeftUpLeg -7.144168 11.537172 28.062076
LeftLeg 15.933074 -0.000000 -0.000000
LeftFoot -15.051803 15.940221 -23.397580
LeftToeBase -5.359214 -0.000000 0.000000
RightUpLeg -77.835131 -45.543753 -4.031968
RightLeg 135.548351 -0.000000 -0.000000
RightFoot 46.730142 3.867272 5.848931
RightToeBase 36.075128 -0.000000 -0.000000
628
root 5.497214 34.307394 -9.790988 31.792281 -37.166472 -44.680988
Spine 0.606236 25.385025 24.035105
Head 1.086544 3.601291 6.855808
LeftShoulder -23.699663 42.600313 14.906641
LeftArm 55.707680 -49.920993 -75.582528
LeftForeArm -0.880876 -0.000000 7.795305
LeftHand 11.699811 -0.000000 6.807796
LeftHandThumb1 -26.253704 0.000000 33.147579
RightShoulder 7.357536 8.934844 -16.028220
RightArm 24.598058 3.755804 71.839191
RightForeArm 6.719372 -0.000000 2.043991
RightHand 2.366970 -0.000000 6.856880
RightHandThumb1 -24.326973 -0.000000 -32.862282
LeftUpLeg -7.259850 11.438961 28.250954
LeftLeg 15.983502 -0.000000 -0.000000
LeftFoot -15.090899 15.636605 -23.675440
LeftToeBase -5.258462 -0.000000 0.000000
RightUpLeg -78.264466 -45.654375 -3.936528
RightLeg 135.154844 -0.000000 -0.000000
RightFoot 46.434270 3.152794 5.358330
RightToeBase 35.695378 -0.000000 -0.000000
629
root 5.490790 34.311103 -9.818623 31.915589 -36.990810 -44.712758
Spine 0.297628 25.424485 23.840016
Head 1.227222 3.448600 7.172565
LeftShoulder -23.587127 42.446454 15.034952
LeftArm 55.601836 -49.801853 -75.055766
LeftForeArm -0.850920 -0.000000 7.722743
LeftHand 11.709854 0.000000 6.719949
LeftHandThumb1 -26.253704 0.000000 33.147579
RightShoulder 7.304913 8.999386 -15.996744
RightArm 24.374337 3.846870 71.701265
RightForeArm 6.628700 -0.000000 1.996590
RightHand 2.416592 0.000000 7.023299
RightHandThumb1 -24.326973 -0.000000 -32.862282
LeftUpLeg -7.491405 11.373123 28.423043
LeftLeg 16.120720 -0.000000 -0.000000
LeftFoot -15.144906 15.295123 -23.968850
LeftToeBase -5.049230 -0.000000 0.000000
RightUpLeg -78.744144 -45.747690 -3.921222
RightLeg 134.654128 -0.000000 -0.000000
RightFoot 46.148699 2.500604 4.980253
RightToeBase 35.619426 -0.000000 -0.000000
630
root 5.480240 34.313461 -9.844429 31.956782 -36.810059 -44.723806
Spine 0.057041 25.377907 23.660046
Head 1.366879 3.363476 7.488187
LeftShoulder -23.502395 42.316330 15.131344
LeftArm 55.599627 -49.773636 -74.692102
LeftForeArm -0.698485 -0.000000 7.661954
LeftHand 11.699269 -0.000000 6.620885
LeftHandThumb1 -26.253704 0.000000 33.147579
RightShoulder 7.304095 9.083971 -15.939195
RightArm 24.167188 4.035792 71.577868
RightForeArm 6.478199 0.000000 1.932517
RightHand 2.192554 -0.000000 7.274758
RightHandThumb1 -24.326973 -0.000000 -32.862282
LeftUpLeg -7.688781 11.341822 28.598463
LeftLeg 16.291547 -0.000000 -0.000000
LeftFoot -15.177116 14.923053 -24.261142
LeftToeBase -4.994790 -0.000000 0.000000
RightUpLeg -79.087327 -45.856509 -4.079985
RightLeg 134.030914 -0.000000 -0.000000
RightFoot 45.885420 2.074552 4.532093
RightToeBase 35.756017 -0.000000 -0.000000
631
root 5.469797 34.316302 -9.870189 31.973596 -36.619558 -44.760608
Spine -0.109035 25.315233 23.531301
Head 1.420515 3.253568 7.784018
LeftShoulder -23.489451 42.190603 15.147793
LeftArm 55.691370 -49.742930 -74.375024
LeftForeArm -0.514758 -0.000000 7.556473
LeftHand 11.727892 -0.000000 6.628602
LeftHandThumb1 -26.253704 0.000000 33.147579
RightShoulder 7.287977 9.102916 -15.903826
RightArm 24.034820 4.226940 71.434782
RightForeArm 6.456698 0.000000 1.897651
RightHand 2.288062 -0.000000 7.286635
RightHandThumb1 -24.326973 -0.000000 -32.862282
LeftUpLeg -7.864682 11.327685 28.798529
LeftLeg 16.475160 -0.000000 -0.000000
LeftFoot -15.237130 14.553497 -24.549992
LeftToeBase -4.922621 -0.000000 0.000000
RightUpLeg -79.319019 -45.937550 -4.357424
RightLeg 133.266484 -0.000000 -0.000000
RightFoot 45.627815 1.657957 4.144243
RightToeBase 35.757784 -0.000000 -0.000000
632
root 5.457898 34.320633 -9.900647 31.990475 -36.409952 -44.831650
Spine -0.237321 25.252380 23.435778
Head 1.430011 3.136533 8.111257
LeftShoulder -23.457809 42.092264 15.195679
LeftArm 55.751893 -49.669264 -74.050353
LeftForeArm -0.407145 -0.000000 7.487782
LeftHand 11.667646 -0.000000 6.696845
LeftHandThumb1 -26.253704 0.000000 33.147579
RightShoulder 7.276471 9.154738 -15.857918
RightArm 23.854117 4.444740 71.266582
RightForeArm 6.328189 0.000000 1.910574
RightHand 2.157698 -0.000000 7.576820
RightHandThumb1 -24.326973 -0.000000 -32.862282
LeftUpLeg -8.028337 11.400076 29.036990
LeftLeg 16.657421 -0.000000 -0.000000
LeftFoot -15.296122 14.130405 -24.847357
LeftToeBase -4.771480 -0.000000 0.000000
RightUpLeg -79.512712 -46.006149 -4.667953
RightLeg 132.363695 -0.000000 -0.000000
RightFoot 45.393004 1.147869 3.824164
RightToeBase 35.779505 -0.000000 -0.000000
633
root 5.444347 34.326809 -9.929936 31.981025 -36.185607 -44.936522
Spine -0.308693 25.158398 23.406507
Head 1.434304 3.035842 8.402413
LeftShoulder -23.432479 41.976693 15.234423
LeftArm 55.765179 -49.587208 -73.708660
LeftForeArm -0.387756 -0.000000 7.386726
LeftHand 11.733474 -0.000000 6.707377
LeftHandThumb1 -26.253704 0.000000 33.147579
RightShoulder 7.295561 9.176651 -15.826031
RightArm 23.684119 4.653556 71.065171
RightForeArm 6.172905 0.000000 1.970961
RightHand 2.099740 0.000000 7.771798
RightHandThumb1 -24.326973 -0.000000 -32.862282
LeftUpLeg -8.115611 11.492555 29.307294
LeftLeg 16.776186 -0.000000 -0.000000
LeftFoot -15.354573 13.737480 -25.091731
LeftToeBase -4.603781 -0.000000 0.000000
RightUpLeg -79.621866 -46.094313 -5.021280
RightLeg 131.314867 -0.000000 -0.000000
RightFoot 45.142714 0.660752 3.427417
RightToeBase 35.683113 -0.000000 -0.000000
